<svg width="34" height="35" viewBox="0 0 34 35" fill="none" xmlns="http://www.w3.org/2000/svg">
<g clip-path="url(#clip0_59_34)">
<path d="M17 1.16669V33.8334M32.8666 17.4884H1.1333M30.6 17.4884C30.5994 21.2023 29.1667 24.7641 26.6166 27.3913C24.0666 30.0185 20.6078 31.4963 17 31.5C9.4905 31.5 3.39997 25.214 3.39997 17.4884C3.40237 13.7769 4.83628 10.2184 7.38652 7.59489C9.93675 4.9714 13.3946 3.49769 17 3.49769C20.6053 3.49769 24.0632 4.9714 26.6134 7.59489C29.1636 10.2184 30.5976 13.7769 30.6 17.4884Z" stroke="#CB3572" stroke-linecap="square"/>
<path d="M24.6491 11.286L19.0001 14.548V8.02502H15.0001V14.548L9.35107 11.286L7.35107 14.751L12.9991 18.012L7.35107 21.273L9.35107 24.738L15.0001 21.477V28H19.0001V21.477L24.6491 24.738L26.6491 21.273L21.0011 18.012L26.6491 14.751L24.6491 11.286Z" fill="#CB3572"/>
</g>
<defs>
<clipPath id="clip0_59_34">
<rect width="34" height="35" fill="white"/>
</clipPath>
</defs>
</svg>
